<?xml version="1.0" encoding="UTF-8"?><svg xmlns="http://www.w3.org/2000/svg" viewBox="0 0 279 243"><g id="a"/><g id="b"><g id="c"><path d="M68.66,243s25.21-42.7,35.62-32.26c10.42,10.44,8.26,24.4,8.26,24.4,0,0,10.51-33.55,27.64-33.55s41.47,38.36,41.47,38.36c0,0-14.1-34.42,11.42-53.59,25.52-19.17,44.21-5.23,44.21-5.23,0,0-27.81-27.02-16.5-56.64,13.6-35.73,55.9-42.06,58.22-42.7,0,0-32.38,2.83-46.5-11.33-14.12-14.16,9.56-30.5,9.56-30.5,0,0-40.51,24.84-55.89,18.3-15.38-6.53,6.91-30.5,6.91-30.5,0,0-27.93,23.09-71.4,15.68C78.2,36.03,42.29,0,42.29,0c0,0,33.33,30.37,26.81,46.05-6.52,15.68-24.78-6.97-24.78-6.97,0,0,20.48,31.74,3.48,73.64C32.64,150.08,0,147.58,0,147.58c0,0,43.93,3.84,61.41,23.76,20.81,23.68,7.26,71.67,7.26,71.67Z" style="fill:#92c52f; isolation:isolate; opacity:.9;"/></g></g></svg>