<?xml version="1.0" encoding="UTF-8"?><svg xmlns="http://www.w3.org/2000/svg" viewBox="0 0 1213.5 218.62"><g id="a"/><g id="b"><g id="c"><g><path d="M121.86,77.51c.48-2.91,1.77-5.61,3.68-7.81-1.82,.62-3.43,1.34-4.71,2.19-1.96,1.3-4.51,1.3-6.47,0-1.3-.85-2.89-1.56-4.67-2.13,1.89,2.19,3.15,4.87,3.63,7.75,2.84-.29,5.7-.29,8.54,0Z" style="fill:none;"/><polygon points="78.66 114.54 71.01 110.36 66.83 102.71 62.65 110.36 55 114.54 62.65 118.72 66.83 126.37 71.01 118.72 78.66 114.54" style="fill:none;"/><polygon points="156.52 115.55 164.16 119.73 168.34 127.38 172.53 119.73 180.17 115.55 172.53 111.37 168.34 103.72 164.16 111.37 156.52 115.55" style="fill:none;"/><path d="M156.95,128.91c-1.52-14.02-2.9-19.38-2.38-22.44-1.01,.19-2.04,.3-3.07,.29h-13.02c-1.83,0-3.63-.32-5.33-.91-.06,1.32-1.04,2.43-2.36,2.62-1.36,.2-2.67-.62-3.06-1.94-.04-.16-.16-.28-.31-.33-.15-.05-.32-.02-.45,.08-1.78,1.58-2.98,3.71-3.42,6.05-.27,1.29-1.4,2.21-2.71,2.21h0c-.2,0-.4-.02-.6-.07-1.53-.47-2.42-2.04-2.05-3.59,1.11-4.84,4.28-8.94,7.64-10.36-1.8-2.37-2.91-5.21-3.17-8.21h0l-.83-9.19c-.1-.02-.2-.06-.3-.07-2.62-.28-5.26-.28-7.87,0h0c-.1,.01-.2,.05-.3,.07l-.83,9.19c-.26,3-1.37,5.85-3.17,8.22,3.36,1.43,6.55,5.54,7.65,10.38,.19,.76,.08,1.56-.32,2.23-.4,.67-1.05,1.16-1.81,1.35-.17,.03-.35,.05-.52,.05h0c-1.31,0-2.44-.92-2.71-2.21-.44-2.34-1.64-4.47-3.42-6.05-.13-.1-.29-.13-.45-.08-.15,.05-.27,.17-.31,.33-.4,1.32-1.7,2.14-3.06,1.94-1.32-.2-2.3-1.3-2.36-2.62-1.7,.6-3.5,.92-5.33,.91h-13.02c-1.03,0-2.06-.1-3.06-.29,.51,3.06-.87,8.42-2.38,22.43h0c-2.2,20.33,18.31,35.16,39.35,35.16s41.54-14.82,39.35-35.16Zm-12.66,2.96c-2.25,1.67-5.03,2.47-7.83,2.26h0c-3.18-.1-6.36-.42-9.5-.96-3.1-.53-6.23-.85-9.37-.96-3.14,.11-6.28,.42-9.38,.95-6.97,1.01-13.55,1.96-17.32-1.29-1.77-1.61-2.72-3.93-2.59-6.32,0-1.53,1.24-2.77,2.77-2.77s2.77,1.24,2.77,2.77,.51,1.98,.67,2.12c1.85,1.6,7.97,.71,12.89,0h0c3.36-.57,6.76-.91,10.17-1.01,3.41,.1,6.81,.44,10.17,1.01,4.92,.71,11.04,1.6,12.89,0,.17-.14,.67-.58,.67-2.12h0c0-1.53,1.24-2.78,2.77-2.78s2.77,1.24,2.77,2.77c.13,2.39-.82,4.71-2.59,6.32Z" style="fill:none;"/><path d="M103.68,98.53c1.91-1.74,3.09-4.14,3.31-6.71l.97-10.66v-.09c.26-2.89-.7-5.76-2.66-7.9-1.96-2.14-4.73-3.36-7.63-3.36h-14.96c-2.9,0-5.67,1.22-7.63,3.36-1.96,2.14-2.93,5.01-2.66,7.9l.97,10.75c.22,2.57,1.4,4.97,3.31,6.71,1.91,1.74,4.4,2.7,6.98,2.69h13.02c2.58,.01,5.08-.95,6.98-2.69Zm-8.75,.03c-3.99-.96-6.27-5.7-5.09-10.58,1.18-4.88,5.37-8.06,9.36-7.09,3.99,.96,6.27,5.7,5.09,10.58-1.18,4.88-5.37,8.06-9.36,7.09Z" style="fill:none;"/><path d="M127.22,81.07v.09l.97,10.66c.22,2.57,1.4,4.97,3.31,6.71,1.91,1.74,4.4,2.7,6.98,2.69h13.02c2.58,.01,5.08-.95,6.98-2.69,1.91-1.74,3.09-4.14,3.31-6.71l.97-10.75h0c.26-2.89-.71-5.76-2.66-7.9-1.96-2.14-4.73-3.36-7.63-3.36h-14.96c-2.9,0-5.67,1.22-7.63,3.36-1.96,2.14-2.92,5.01-2.66,7.9h0Zm10.36-.18c3.99-.96,8.18,2.21,9.36,7.09,1.18,4.88-1.1,9.62-5.09,10.58-3.99,.96-8.18-2.21-9.36-7.09-1.18-4.88,1.1-9.62,5.09-10.58Z" style="fill:none;"/><path d="M96.7,106.76c1.83,0,3.63-.32,5.33-.91,0-.04-.01-.08-.01-.12,0-3.89,2.34-5.51,4.35-5.72,.98-.1,1.99,.1,2.98,.52,1.8-2.37,2.92-5.21,3.17-8.22l.83-9.19c.1-.02,.2-.06,.3-.07h0c2.62-.28,5.26-.28,7.87,0,.1,.01,.2,.05,.3,.07l.83,9.19h0c.26,3,1.37,5.84,3.17,8.21,1-.42,2.01-.62,2.99-.52,2.01,.21,4.35,1.83,4.35,5.72h0s0,.08-.01,.13c1.7,.6,3.49,.92,5.33,.91h13.02c1.04,0,2.07-.1,3.07-.29,.36-2.13,1.64-3.14,4.43-5.18,6.89-5.03,7.17-28.57,2.59-31.37-5.92-3.62-25.02-3.96-36.04-.22-1.92,2.2-3.21,4.9-3.68,7.81-2.84-.29-5.7-.29-8.54,0-.47-2.88-1.74-5.56-3.63-7.75-10.66-3.42-28.43-2-34.34,1.62-4.58,2.81-6.05,24.87,.85,29.91,2.79,2.04,4.07,3.05,4.43,5.19,1,.19,2.02,.29,3.06,.29h13.02Zm33.18-33.59c1.96-2.14,4.73-3.36,7.63-3.36h14.96c2.9,0,5.67,1.22,7.63,3.36,1.96,2.14,2.92,5.01,2.66,7.9h0l-.97,10.75c-.22,2.57-1.4,4.97-3.31,6.71-1.91,1.74-4.4,2.7-6.98,2.69h-13.02c-2.58,.01-5.08-.95-6.98-2.69-1.91-1.74-3.09-4.14-3.31-6.71l-.97-10.66v-.09h0c-.26-2.89,.7-5.76,2.66-7.9Zm-53.18,25.36c-1.91-1.74-3.09-4.14-3.31-6.71l-.97-10.75c-.26-2.89,.71-5.76,2.66-7.9,1.96-2.14,4.73-3.36,7.63-3.36h14.96c2.9,0,5.67,1.22,7.63,3.36,1.96,2.14,2.93,5.01,2.66,7.9v.09l-.97,10.66c-.22,2.57-1.4,4.97-3.31,6.71-1.91,1.74-4.4,2.7-6.98,2.69h-13.02c-2.58,.01-5.08-.95-6.98-2.69Z"/><path d="M106.37,100.01c-2.01,.21-4.35,1.83-4.35,5.72,0,.04,0,.08,.01,.12,.06,1.32,1.04,2.43,2.36,2.62,1.36,.2,2.67-.62,3.06-1.94,.04-.15,.16-.28,.31-.33,.15-.05,.32-.02,.45,.08,1.78,1.58,2.98,3.71,3.42,6.05,.27,1.29,1.4,2.21,2.71,2.21h0c.18,0,.35-.02,.52-.05,.76-.19,1.41-.68,1.81-1.35,.4-.67,.52-1.48,.32-2.23-1.1-4.85-4.29-8.96-7.65-10.38-.99-.42-2-.62-2.98-.52Z"/><path d="M133.16,105.72c0-3.89-2.34-5.51-4.35-5.72-.98-.1-1.99,.09-2.99,.52-3.36,1.42-6.53,5.53-7.64,10.36-.37,1.55,.53,3.13,2.05,3.59,.2,.04,.4,.07,.6,.07h0c1.31,0,2.44-.92,2.71-2.21,.44-2.34,1.64-4.47,3.42-6.05,.13-.1,.29-.13,.45-.08,.15,.05,.27,.17,.31,.33,.4,1.32,1.7,2.14,3.06,1.94,1.32-.2,2.3-1.3,2.36-2.62,0-.04,.01-.08,.01-.13h0Z"/><path d="M144.1,122.78c-1.53,0-2.77,1.24-2.77,2.77h0c0,1.54-.51,1.98-.67,2.12-1.85,1.6-7.97,.71-12.89,0-3.36-.57-6.76-.91-10.17-1.01-3.41,.1-6.81,.44-10.17,1.01h0c-4.92,.71-11.04,1.6-12.89,0-.17-.14-.67-.58-.67-2.12s-1.24-2.77-2.77-2.77-2.77,1.24-2.77,2.77c-.13,2.39,.82,4.71,2.59,6.32,3.76,3.26,10.35,2.31,17.32,1.29,3.1-.53,6.24-.85,9.38-.95,3.14,.11,6.27,.43,9.37,.96,3.14,.54,6.31,.86,9.5,.96h0c2.8,.22,5.58-.58,7.83-2.26,1.77-1.61,2.72-3.93,2.59-6.32,0-1.53-1.24-2.77-2.77-2.77Z"/><path d="M141.85,98.56c3.99-.96,6.27-5.7,5.09-10.58-1.18-4.88-5.37-8.06-9.36-7.09-3.99,.96-6.27,5.7-5.09,10.58,1.18,4.88,5.37,8.06,9.36,7.09Z"/><path d="M104.29,91.47c1.18-4.88-1.1-9.62-5.09-10.58-3.99-.96-8.18,2.21-9.36,7.09-1.18,4.88,1.1,9.62,5.09,10.58,3.99,.96,8.18-2.21,9.36-7.09Z"/><path d="M183.65,160.18h0c-1.25-.11-2.32-.19-2.87-.31-2.02-.49-3.95-1.29-5.73-2.36,6.02-4.44,11.33-9.76,15.75-15.79,15.21-20.77,6.63-42.56-1.65-63.64-3.56-8.36-6.44-16.99-8.6-25.82C169.69,.99,146.28-2.65,122.6,1.05c-1.65,.26-3.32,.39-4.99,.39h-.04c-1.67,0-3.34-.13-5-.39-23.68-3.7-47.08-.06-57.92,51.21h0c-2.16,8.82-5.04,17.46-8.6,25.82-8.29,21.08-16.86,42.87-1.65,63.64,4.42,6.03,9.73,11.36,15.75,15.8-1.79,1.07-3.72,1.86-5.75,2.35-.55,.11-1.62,.2-2.87,.3C38.77,161.23,.3,169.2,0,208.89c-.01,1.72,.68,3.37,1.89,4.59,1.21,1.22,2.86,1.91,4.58,1.91H228.7c1.72,0,3.37-.7,4.58-1.91,1.21-1.22,1.9-2.87,1.89-4.59-.17-40.44-38.78-47.67-51.53-48.72Zm-11.12-48.81l7.65,4.18-7.65,4.18-4.18,7.65-4.18-7.65-7.65-4.18,7.65-4.18,4.18-7.65,4.18,7.65Zm-109.88,7.36l-7.65-4.18,7.65-4.18,4.18-7.65,4.18,7.65,7.65,4.18-7.65,4.18-4.18,7.65-4.18-7.65Zm54.94,45.34c-21.03,0-41.54-14.82-39.35-35.16h0c1.51-14.01,2.89-19.38,2.38-22.43-.36-2.13-1.63-3.15-4.43-5.19-6.89-5.04-5.43-27.1-.85-29.91,5.91-3.62,23.67-5.04,34.34-1.62,1.78,.57,3.37,1.27,4.67,2.13,1.96,1.3,4.51,1.3,6.47,0,1.28-.85,2.89-1.57,4.71-2.19,11.02-3.74,30.12-3.41,36.04,.22,4.58,2.81,4.3,26.34-2.59,31.37-2.79,2.04-4.07,3.05-4.43,5.18-.51,3.06,.86,8.42,2.38,22.44,2.19,20.33-18.32,35.16-39.35,35.16Z"/></g><g><path d="M375.75,151.14h27.86v34.44h-92.54v-20.16l43.12-65.8h-14.56v11.48h-27.86v-34.44h89.6v20.16l-42.98,65.8h17.36v-11.48Z"/><path d="M501.05,162.62v22.96h-44.24v-22.96h5.88v-22.96c0-3.08-.65-5.34-1.96-6.79-1.31-1.45-3.27-2.17-5.88-2.17-5.6,0-8.4,2.99-8.4,8.96v22.96h5.88v22.96h-44.24v-22.96h6.16v-63h-6.16v-22.96h38.36v42c3.45-4.29,7.19-7.51,11.2-9.66,4.01-2.15,8.68-3.22,14-3.22,7.75,0,13.56,2.43,17.43,7.28,3.87,4.85,5.81,11.53,5.81,20.02v29.54h6.16Z"/><path d="M587.15,162.62v22.96h-36.96v-9.52c-2.05,2.99-4.92,5.65-8.61,7.98-3.69,2.33-8.19,3.5-13.51,3.5-7,0-12.51-1.87-16.52-5.6-4.01-3.73-6.02-9.01-6.02-15.82,0-17.64,14.98-26.69,44.94-27.16-.28-3.17-1.49-5.34-3.64-6.51-2.15-1.17-5.79-1.75-10.92-1.75-4.2,0-8.7,.44-13.51,1.33-4.81,.89-9.22,2.08-13.23,3.57v-25.76c4.95-1.21,10.31-2.19,16.1-2.94,5.79-.75,11.43-1.12,16.94-1.12,13.91,0,23.85,2.52,29.82,7.56,5.97,5.04,8.96,12.83,8.96,23.38v25.9h6.16Zm-36.96-9.8c-4.2,0-7.44,.56-9.73,1.68-2.29,1.12-3.43,2.99-3.43,5.6,0,1.59,.49,2.87,1.47,3.85,.98,.98,2.36,1.47,4.13,1.47,2.43,0,4.29-1.03,5.6-3.08,1.31-2.05,1.96-4.95,1.96-8.68v-.84Z"/><path d="M684.58,162.62v22.96h-44.24v-22.96h5.88v-22.96c0-3.08-.65-5.34-1.96-6.79-1.31-1.45-3.27-2.17-5.88-2.17-5.6,0-8.4,2.99-8.4,8.96v22.96h5.88v22.96h-44.24v-22.96h6.16v-31.92h-6.16v-22.96h38.36v10.92c6.72-8.59,15.12-12.88,25.2-12.88,7.75,0,13.56,2.43,17.43,7.28,3.87,4.85,5.81,11.53,5.81,20.02v29.54h6.16Z"/><path d="M710.83,217.22c-6.11-.93-10.85-2.01-14.21-3.22v-22.96c9.89,1.77,18.76,2.66,26.6,2.66,5.32,0,9.17-.82,11.55-2.45,2.38-1.63,3.57-4.69,3.57-9.17v-6.02c-2.33,2.99-5.34,5.65-9.03,7.98-3.69,2.33-7.91,3.5-12.67,3.5-9.52,0-16.68-3.55-21.49-10.64-4.81-7.09-7.21-17.17-7.21-30.24s2.4-23.15,7.21-30.24c4.81-7.09,11.97-10.64,21.49-10.64,4.76,0,8.98,1.17,12.67,3.5,3.69,2.33,6.7,4.99,9.03,7.98v-9.52h38.36v22.96h-6.16v49.28c0,13.53-3.36,23.36-10.08,29.47-6.72,6.11-16.85,9.17-30.38,9.17-6.72,0-13.14-.47-19.25-1.4Zm25.48-56.77c1.35-1.45,2.03-3.71,2.03-6.79v-14c0-3.08-.68-5.34-2.03-6.79-1.35-1.45-3.38-2.17-6.09-2.17s-4.74,.72-6.09,2.17c-1.35,1.45-2.03,3.71-2.03,6.79v14c0,3.08,.68,5.34,2.03,6.79,1.35,1.45,3.38,2.17,6.09,2.17s4.74-.72,6.09-2.17Z"/><path d="M924.26,162.62h5.88v22.96h-52.92v-22.96h5.74l-8.12-11.48h-1.4l-8.12,11.48h5.74v22.96h-49v-22.96h7.28l26.88-30.24-28-32.76h-5.88v-22.96h52.5v22.96h-5.32l7.7,11.48h1.4l7.7-11.48h-5.32v-22.96h48.58v22.96h-7.28l-26.46,29.82,28.42,33.18Z"/><path d="M934.62,185.58v-22.96h6.16v-31.92h-6.16v-22.96h38.36v54.88h6.16v22.96h-44.52Zm6.72-85.54v-23.38h28.56v23.38h-28.56Z"/><path d="M1076.02,162.62v22.96h-44.24v-22.96h5.88v-22.96c0-3.08-.65-5.34-1.96-6.79-1.31-1.45-3.27-2.17-5.88-2.17-5.6,0-8.4,2.99-8.4,8.96v22.96h5.88v22.96h-44.24v-22.96h6.16v-31.92h-6.16v-22.96h38.36v10.92c6.72-8.59,15.12-12.88,25.2-12.88,7.75,0,13.56,2.43,17.43,7.28,3.87,4.85,5.81,11.53,5.81,20.02v29.54h6.16Z"/><path d="M1164.78,107.74v22.96h-5.32l-18.34,48.58c-4.57,12.23-9.8,21.4-15.68,27.51-5.88,6.11-13.63,9.17-23.24,9.17-3.92,0-7.89-.4-11.9-1.19-4.01-.79-7.65-1.89-10.92-3.29v-25.34h19.32v1.4c0,2.33,1.21,3.5,3.64,3.5,2.15,0,3.78-1.03,4.9-3.08l-22.12-57.26h-5.32v-22.96h41.58v22.96h-4.76l7.28,21.84,6.72-21.84h-4.76v-22.96h38.92Z"/><path d="M1168.98,185.58v-22.96h6.16v-31.92h-6.16v-22.96h38.36v54.88h6.16v22.96h-44.52Zm6.72-85.54v-23.38h28.56v23.38h-28.56Z"/></g></g></g></svg>